<svg xmlns="http://www.w3.org/2000/svg" width="600" height="400" aria-hidden="false" aria-label="Interactive chart" class="highcharts-root" style="font-family:Helvetica,Arial,sans-serif;font-size:1rem"><rect width="600" height="400" fill="#fff" aria-hidden="true" class="highcharts-background" filter="none" rx="0" ry="0"/><path fill="none" d="M10 63H590V385H10z" aria-hidden="true" class="highcharts-plot-background" filter="none"/><path fill="none" d="M10 63H590V385H10z" aria-hidden="true" class="highcharts-plot-border" data-z-index="1"/><g aria-hidden="false" class="highcharts-series-group" data-z-index="3" filter="none"><g stroke="#fff" stroke-linejoin="round" aria-hidden="false" class="highcharts-series highcharts-series-0 highcharts-pie-series highcharts-tracker" data-z-index=".1" filter="none" style="cursor:pointer"><path fill="#2caffe" d="M 289.97189974019244 33.032615410831994 A 3 3 0 0 1 293.0365061927067 30.032700138856114 A 141 141 0 1 1 249.2131076911127 305.9719578867523 A 3 3 0 0 1 247.22871413681085 302.17018375228935 L 290 171 A 0 0 0 0 1 290 171 A 0 0 0 1 0 290 171 A 0 0 0 0 1 290 171 Z" aria-label="Water, 55.02%. Percentage." class="highcharts-point highcharts-color-0" style="outline:0" tabindex="-1" transform="translate(10 63)"/><path fill="#544fc5" d="M 247.22871413681085 302.17018375228935 A 3 3 0 0 1 243.3846994580225 304.0714610853173 A 141 141 0 0 1 160.1670250443062 116.00546741580409 A 3 3 0 0 1 164.1593009390753 114.43924982942865 L 290 171 A 0 0 0 0 1 290 171 A 0 0 0 0 0 290 171 A 0 0 0 0 1 290 171 Z" aria-label="Fat, 26.71%. Percentage." class="highcharts-point highcharts-point-select highcharts-color-1" style="outline:0" tabindex="-1" transform="translate(1 67)"/><path fill="#00e272" d="M 164.1593009390753 114.43924982942865 A 3 3 0 0 1 162.6802420920651 110.4138691921588 A 141 141 0 0 1 164.26758227001096 107.18496155472802 A 3 3 0 0 1 168.3583416030815 105.89771937598975 L 290 171 A 0 0 0 0 1 290 171 A 0 0 0 0 0 290 171 A 0 0 0 0 1 290 171 Z" aria-label="Carbohydrates, 1.09%. Percentage." class="highcharts-point highcharts-color-2" style="outline:0" tabindex="-1" transform="translate(10 63)"/><path fill="#fe6a35" d="M 168.3583416030815 105.89771937598975 A 3 3 0 0 1 167.16033317976422 101.77994325707714 A 141 141 0 0 1 272.1229406604634 31.13788665485322 A 3 3 0 0 1 275.48665878387584 33.79809430352526 L 290 171 A 0 0 0 0 1 290 171 A 0 0 0 0 0 290 171 A 0 0 0 0 1 290 171 Z" aria-label="Protein, 15.5%. Percentage." class="highcharts-point highcharts-color-3" style="outline:0" tabindex="-1" transform="translate(10 63)"/><path fill="#6b8abc" d="M 275.48665878387584 33.79809430352526 A 3 3 0 0 1 278.21936207180454 30.49300170452446 A 141 141 0 0 1 286.87994956914633 30.03452449160139 A 3 3 0 0 1 289.94633339390805 33.03262298682566 L 290 171 A 0 0 0 0 1 290 171 A 0 0 0 0 0 290 171 A 0 0 0 0 1 290 171 Z" aria-label="Ash, 1.68%. Percentage." class="highcharts-point highcharts-color-4" style="outline:0" tabindex="-1" transform="translate(10 63)"/></g></g><text x="300" y="25" aria-hidden="true" class="highcharts-title" data-z-index="4" style="font-size:1.2em;color:#333;font-weight:700;fill:#333" text-anchor="middle">Egg Yolk Composition</text><text x="300" y="47" aria-hidden="true" class="highcharts-subtitle" data-z-index="4" style="color:#666;font-size:.8em;fill:#666" text-anchor="middle">Source:<a target="_default"><tspan>MDPI</tspan></a></text><g aria-hidden="true" class="highcharts-data-labels highcharts-series-0 highcharts-pie-series highcharts-tracker" data-z-index="6" style="cursor:pointer"><path fill="none" stroke="#2caffe" d="M 454.0019666496097 196.28585773819833 L 449.00196664960947 196.28585773819833 L 433.2005289701454 193.77297746607925 L 429.25016955027934 193.14475739804948" class="highcharts-data-label-connector highcharts-color-0" transform="translate(10 63)"/><path fill="none" stroke="#544fc5" d="M 137.74824727242327 236.09931888012807 L 142.74824727242324 236.09931888012807 L 157.3819618292011 229.6298213516681 L 161.04039046839554 228.01244696955314" class="highcharts-data-label-connector highcharts-color-1" transform="translate(10 63)"/><path fill="none" stroke="#00e272" d="M 140.5289984561415 99.94277156464355 L 145.5289984561415 99.94277156464355 L 159.8863650691957 107.00435948368518 L 163.47570672245928 108.76975646344559" class="highcharts-data-label-connector highcharts-color-2" transform="translate(10 63)"/><path fill="none" stroke="#fe6a35" d="M 195.09111771483256 37.44329711230549 L 200.0911177148326 37.44329711230549 L 209.0261619170852 50.71601292723165 L 211.25992296764838 54.03419188096319" class="highcharts-data-label-connector highcharts-color-3" transform="translate(10 63)"/><path fill="none" stroke="#6b8abc" d="M 276.5065646872994 10.224188521441544 L 281.506564687299 10.224188521441544 L 282.35063279290904 26.201908916826234 L 282.5616498193115 30.196339015672407" class="highcharts-data-label-connector highcharts-color-4" transform="translate(10 63)"/><g class="highcharts-label highcharts-data-label highcharts-data-label-color-0" data-z-index="1" filter="none" style="cursor:pointer"><text x="5" y="16" data-z-index="1" style="color:#000;font-size:.7em;font-weight:700;fill:#000" transform="translate(469 248)"><tspan fill="#FFF" stroke="#FFF" stroke-linejoin="round" stroke-width="2" class="highcharts-text-outline">Water<tspan x="5" dy="0">​</tspan></tspan>Water</text></g><g class="highcharts-label highcharts-data-label highcharts-data-label-color-0" data-z-index="1" filter="none" style="opacity:.7;cursor:pointer"><text x="5" y="23" data-z-index="1" style="color:#000;font-size:1.2em;font-weight:700;fill:#000" transform="translate(368 239)">55.0%</text></g><g class="highcharts-label highcharts-data-label highcharts-data-label-color-1" data-z-index="1" filter="none" style="cursor:pointer"><text x="5" y="16" data-z-index="1" style="color:#000;font-size:.7em;font-weight:700;fill:#000" transform="translate(116 288)"><tspan fill="#FFF" stroke="#FFF" stroke-linejoin="round" stroke-width="2" class="highcharts-text-outline">Fat<tspan x="5" dy="0">​</tspan></tspan>Fat</text></g><g class="highcharts-label highcharts-data-label highcharts-data-label-color-1" data-z-index="1" filter="none" style="opacity:.7;cursor:pointer"><text x="5" y="23" data-z-index="1" style="color:#fff;font-size:1.2em;font-weight:700;fill:#fff" transform="translate(175 264)">26.7%</text></g><g class="highcharts-label highcharts-data-label highcharts-data-label-color-2" data-z-index="1" filter="none" style="cursor:pointer"><text x="5" y="16" data-z-index="1" style="color:#000;font-size:.7em;font-weight:700;fill:#000" transform="translate(56 152)"><tspan fill="#FFF" stroke="#FFF" stroke-linejoin="round" stroke-width="2" class="highcharts-text-outline">Carbohydrates<tspan x="5" dy="0">​</tspan></tspan>Carbohydrates</text></g><g class="highcharts-label highcharts-data-label highcharts-data-label-color-3" data-z-index="1" filter="none" style="cursor:pointer"><text x="5" y="16" data-z-index="1" style="color:#000;font-size:.7em;font-weight:700;fill:#000" transform="translate(152 89)"><tspan fill="#FFF" stroke="#FFF" stroke-linejoin="round" stroke-width="2" class="highcharts-text-outline">Protein<tspan x="5" dy="0">​</tspan></tspan>Protein</text></g><g class="highcharts-label highcharts-data-label highcharts-data-label-color-3" data-z-index="1" filter="none" style="opacity:.7;cursor:pointer"><text x="5" y="23" data-z-index="1" style="color:#000;font-size:1.2em;font-weight:700;fill:#000" transform="translate(211 140)">15.5%</text></g><g class="highcharts-label highcharts-data-label highcharts-data-label-color-4" data-z-index="1" filter="none" style="cursor:pointer"><text x="5" y="16" data-z-index="1" style="color:#000;font-size:.7em;font-weight:700;fill:#000" transform="translate(250 62)"><tspan fill="#FFF" stroke="#FFF" stroke-linejoin="round" stroke-width="2" class="highcharts-text-outline">Ash<tspan x="5" dy="0">​</tspan></tspan>Ash</text></g></g></svg>